<svg width="68" height="71" viewBox="0 0 68 71" fill="none" xmlns="http://www.w3.org/2000/svg">
<g filter="url(#filter0_d_2_667)">
<path fill-rule="evenodd" clip-rule="evenodd" d="M26.7636 27.5984L20.1606 31.3856V44.2549L24.458 46.7097L28.2208 44.5355C28.5404 44.7459 28.9664 44.7459 29.3214 44.5689C29.8539 44.2532 30.0669 43.5868 29.7474 43.061C29.5962 42.8108 29.3534 42.6275 29.0693 42.5492C28.7851 42.4708 28.4814 42.5034 28.2208 42.6402C27.8658 42.8506 27.6528 43.2364 27.6883 43.6219L24.458 45.447L21.7954 43.9392L27.8658 40.4676L28.9309 41.0989L30.5285 42.0105L31.5935 42.6068L42.3143 36.5053C42.6338 36.7158 43.0598 36.7158 43.4504 36.5053C43.9829 36.2248 44.1604 35.5584 43.8409 35.0326C43.6897 34.7823 43.4469 34.5991 43.1627 34.5207C42.8786 34.4424 42.5748 34.475 42.3143 34.6117C41.9593 34.8222 41.7818 35.2076 41.7818 35.5934L33.4748 40.2923L31.5921 41.3795L29.2135 40.012L24.8117 37.4871V34.6478L31.4146 38.4347L32.1247 38.0492L42.8806 31.9121V31.4915L42.7031 27.2827L38.94 25.1449C38.94 24.9348 38.869 24.7594 38.798 24.5841C38.6891 24.3933 38.5255 24.2388 38.3277 24.1399C38.13 24.0411 37.907 24.0024 37.687 24.0287C37.467 24.0551 37.2598 24.1453 37.0917 24.288C36.9236 24.4307 36.8021 24.6194 36.7426 24.8303C36.683 25.0412 36.6881 25.2648 36.7572 25.4728C36.8263 25.6809 36.9563 25.864 37.1308 25.999C37.3052 26.1341 37.5163 26.215 37.7373 26.2315C37.9582 26.248 38.1792 26.1995 38.3723 26.0919V26.0585L41.6381 27.9171L41.7446 30.8625L35.5321 27.3218V23.2152L24.8468 17.1145C24.8468 16.904 24.7758 16.7287 24.6693 16.5536C24.3853 16.0275 23.7108 15.8522 23.1783 16.1327C22.9194 16.2769 22.7291 16.5168 22.6492 16.7996C22.5693 17.0824 22.6065 17.385 22.7524 17.6407C22.8984 17.8965 23.1412 18.0845 23.4274 18.1634C23.7137 18.2423 24.0199 18.2056 24.2788 18.0614V18.028L30.9528 21.85L34.4661 23.8462V31.3856L32.1585 32.7181V25.1436L28.6442 23.1451L21.9702 19.3578L20.8697 18.7265L16.5757 21.1813V25.4592L16.5418 25.4926C16.0448 25.7732 15.8318 26.4396 16.1513 26.9654C16.3025 27.2157 16.5453 27.3989 16.8294 27.4773C17.1136 27.5556 17.4174 27.523 17.6779 27.3863C17.8044 27.3132 17.915 27.2161 18.0032 27.1005C18.0915 26.9849 18.1556 26.8532 18.1919 26.713C18.2283 26.5727 18.236 26.4267 18.2148 26.2835C18.1936 26.1402 18.1439 26.0026 18.0684 25.8785C17.9641 25.7053 17.8177 25.5606 17.6424 25.4576V21.8123L20.1627 20.3759V27.2841L19.3816 27.74L17.6424 28.7217L16.5773 29.3531V41.5562H16.5435C16.0465 41.8716 15.8335 42.538 16.153 43.0641C16.227 43.1891 16.3253 43.2983 16.4424 43.3855C16.5594 43.4727 16.6928 43.536 16.8348 43.5719C16.9768 43.6077 17.1246 43.6154 17.2696 43.5944C17.4146 43.5734 17.554 43.5241 17.6796 43.4495C18.2118 43.1693 18.3896 42.5029 18.0701 41.9768C17.9658 41.8037 17.8194 41.6591 17.6441 41.5562V29.948L24.2825 26.1958L26.7636 27.5984ZM21.2257 32.0166L27.2961 28.545V31.3843L23.7121 33.4179V38.1184L26.7649 39.8366L21.227 42.9926L21.2257 32.0166ZM31.0593 32.8935L28.3967 31.3856V27.3178L24.2788 24.9335L21.2257 26.6868V20.1642L31.0593 25.7759V32.8935ZM25.3435 33.7349L27.8641 32.2985L31.4143 34.3675L35.5321 32.018V28.545L41.2462 31.7711L31.4143 37.2065L25.3435 33.7349Z" fill="white"/>
</g>
<defs>
<filter id="filter0_d_2_667" x="0" y="0" width="68" height="70.7097" filterUnits="userSpaceOnUse" color-interpolation-filters="sRGB">
<feFlood flood-opacity="0" result="BackgroundImageFix"/>
<feColorMatrix in="SourceAlpha" type="matrix" values="0 0 0 0 0 0 0 0 0 0 0 0 0 0 0 0 0 0 127 0" result="hardAlpha"/>
<feOffset dx="4" dy="4"/>
<feGaussianBlur stdDeviation="10"/>
<feComposite in2="hardAlpha" operator="out"/>
<feColorMatrix type="matrix" values="0 0 0 0 1 0 0 0 0 1 0 0 0 0 1 0 0 0 0.56 0"/>
<feBlend mode="normal" in2="BackgroundImageFix" result="effect1_dropShadow_2_667"/>
<feBlend mode="normal" in="SourceGraphic" in2="effect1_dropShadow_2_667" result="shape"/>
</filter>
</defs>
</svg>
